<?xml version="1.0" standalone="no"?><!DOCTYPE svg PUBLIC "-//W3C//DTD SVG 1.1//EN" "http://www.w3.org/Graphics/SVG/1.1/DTD/svg11.dtd"><svg t="1657267244686" class="icon" viewBox="0 0 1024 1024" version="1.1" xmlns="http://www.w3.org/2000/svg" p-id="6598" xmlns:xlink="http://www.w3.org/1999/xlink" width="48" height="48"><defs><style type="text/css">@font-face { font-family: feedback-iconfont; src: url("//at.alicdn.com/t/font_1031158_u69w8yhxdu.woff2?t=1630033759944") format("woff2"), url("//at.alicdn.com/t/font_1031158_u69w8yhxdu.woff?t=1630033759944") format("woff"), url("//at.alicdn.com/t/font_1031158_u69w8yhxdu.ttf?t=1630033759944") format("truetype"); }
</style></defs><path d="M1000.186047 183.367442L846.586047 30.95814c-10.716279-10.716279-30.95814-10.716279-41.674419 0L84.539535 750.139535c-3.572093 3.572093-7.144186 9.525581-8.334884 14.288372L34.530233 959.702326c-2.381395 9.525581 1.190698 20.24186 8.334883 27.386046 5.953488 5.953488 13.097674 8.334884 21.432558 8.334884 2.381395 0 3.572093 0 5.953489-1.190698L265.525581 952.55814c5.953488-1.190698 10.716279-3.572093 14.288372-8.334884L1000.186047 226.232558c5.953488-5.953488 8.334884-13.097674 8.334883-21.432558s-2.381395-15.47907-8.334883-21.432558z m-756.093024 714.418605L102.4 927.553488 132.167442 785.860465l567.962791-567.962791 111.925581 111.925582-567.962791 567.962791z m609.63721-609.63721l-111.925582-111.925581 83.348837-83.348837 111.925582 111.925581-83.348837 83.348837z" p-id="6599" fill="#a6a6a6"></path></svg>